<?xml version="1.0" standalone="no"?>
<!-- Generator: Adobe Fireworks 10, Export SVG Extension by Aaron Beall (http://fireworks.abeall.com) . Version: 0.6.1  -->
<!DOCTYPE svg PUBLIC "-//W3C//DTD SVG 1.1//EN" "http://www.w3.org/Graphics/SVG/1.1/DTD/svg11.dtd">
<svg id="Untitled-%u30DA%u30FC%u30B8%201" viewBox="0 0 13 15" style="background-color:#ffffff00" version="1.1"
	xmlns="http://www.w3.org/2000/svg" xmlns:xlink="http://www.w3.org/1999/xlink" xml:space="preserve"
	x="0px" y="0px" width="13px" height="15px"
>
	<g id="%u30EC%u30A4%u30E4%u30FC_1_1">
		<g>
			<g>
				<path d="M 11.8184 14.231 L 1.1816 14.231 C 0.5308 14.231 0 13.7007 0 13.0488 L 0 6.7456 C 0 6.0942 0.5308 5.564 1.1816 5.564 L 11.8184 5.564 C 12.4702 5.564 13 6.0942 13 6.7456 L 13 13.0488 C 13 13.7007 12.4702 14.231 11.8184 14.231 L 11.8184 14.231 ZM 1.1816 6.7456 L 1.1816 13.0488 L 11.8193 13.0488 L 11.8184 6.7456 L 1.1816 6.7456 L 1.1816 6.7456 Z" fill="#ffffff"/>
			</g>
			<path d="M 6.5 7.8813 C 5.8203 7.8813 5.2686 8.4326 5.2686 9.1123 C 5.2686 9.5767 5.5293 9.9766 5.9092 10.1865 L 5.9092 11.5723 L 7.0908 11.5723 L 7.0908 10.187 C 7.4707 9.9775 7.7314 9.5776 7.7314 9.1123 C 7.7314 8.4326 7.1797 7.8813 6.5 7.8813 L 6.5 7.8813 Z" fill="#ffffff"/>
			<path d="M 9.5625 3.4561 L 10.7817 3.4561 C 10.3555 1.4834 8.5986 0 6.5 0 C 4.083 0 2.1177 1.9658 2.1177 4.3828 L 2.1177 6.0093 L 3.2998 6.0093 L 3.2998 4.3828 C 3.2998 2.6177 4.7354 1.1816 6.5 1.1816 C 7.9429 1.1816 9.1641 2.1416 9.5625 3.4561 Z" fill="#ffffff"/>
		</g>
	</g>
</svg>