<?xml version="1.0" standalone="no"?>
<!-- Generator: Adobe Fireworks 10, Export SVG Extension by Aaron Beall (http://fireworks.abeall.com) . Version: 0.6.1  -->
<!DOCTYPE svg PUBLIC "-//W3C//DTD SVG 1.1//EN" "http://www.w3.org/Graphics/SVG/1.1/DTD/svg11.dtd">
<svg id="Untitled-%u30DA%u30FC%u30B8%201" viewBox="0 0 17 14" style="background-color:#ffffff00" version="1.1"
	xmlns="http://www.w3.org/2000/svg" xmlns:xlink="http://www.w3.org/1999/xlink" xml:space="preserve"
	x="0px" y="0px" width="17px" height="14px"
>
	<g id="%u30EC%u30A4%u30E4%u30FC_1_1">
		<g>
			<path d="M 16.8945 6.5029 C 16.9536 6.562 16.9883 6.6406 16.998 6.7393 C 17.0078 6.8379 16.9829 6.9263 16.9238 7.0054 L 16.1851 7.9214 C 16.126 8.0005 16.0469 8.0396 15.9487 8.0396 C 15.8501 8.0396 15.7617 8.0103 15.6826 7.9512 L 8.7363 2.2466 C 8.6577 2.1875 8.5791 2.1577 8.5 2.1577 C 8.4209 2.1577 8.3423 2.1875 8.2637 2.2466 L 1.3174 7.9512 C 1.2383 8.0103 1.1499 8.0396 1.0513 8.0396 C 0.9531 8.0396 0.874 8.0005 0.8149 7.9214 L 0.0762 7.0054 C 0.0171 6.9263 -0.0078 6.8379 0.002 6.7393 C 0.0117 6.6406 0.0464 6.562 0.1055 6.5029 L 7.6133 0.3252 C 7.8696 0.1084 8.165 0 8.5 0 C 8.835 0 9.1406 0.1084 9.4165 0.3252 L 12.0469 2.5122 L 12.0469 0.3545 C 12.0469 0.2563 12.0815 0.1724 12.1504 0.1035 C 12.2192 0.0347 12.3032 0 12.4019 0 L 14.0571 0 C 14.1553 0 14.2393 0.0347 14.3081 0.1035 C 14.377 0.1724 14.4116 0.2563 14.4116 0.3545 L 14.4116 4.4634 L 16.8945 6.5029 ZM 14.4116 8.3057 C 14.4116 8.1875 14.3721 8.0894 14.2935 8.0103 L 8.7363 3.4585 C 8.6577 3.3994 8.5791 3.3696 8.5 3.3696 C 8.4209 3.3696 8.3423 3.3994 8.2637 3.4585 L 2.7065 8.0103 C 2.6279 8.0894 2.5884 8.1875 2.5884 8.3057 L 2.5884 12.5327 C 2.5884 12.7295 2.6572 12.897 2.7954 13.0352 C 2.9331 13.1733 3.1006 13.2422 3.2979 13.2422 L 6.7266 13.2422 C 6.8252 13.2422 6.9087 13.2075 6.9775 13.1387 C 7.0469 13.0698 7.0811 12.9858 7.0811 12.8872 L 7.0811 9.5767 C 7.0811 9.4785 7.1157 9.3945 7.1846 9.3257 C 7.2534 9.2568 7.3374 9.2222 7.436 9.2222 L 9.564 9.2222 C 9.6626 9.2222 9.7466 9.2568 9.8154 9.3257 C 9.8843 9.3945 9.9189 9.4785 9.9189 9.5767 L 9.9189 12.8872 C 9.9189 12.9858 9.9531 13.0698 10.022 13.1387 C 10.0913 13.2075 10.1748 13.2422 10.2734 13.2422 L 13.7021 13.2422 C 13.8994 13.2422 14.0669 13.1733 14.2046 13.0352 C 14.3428 12.897 14.4116 12.7295 14.4116 12.5327 L 14.4116 8.3057 Z" fill="#ffffff"/>
		</g>
	</g>
</svg>