<?xml version="1.0" standalone="no"?>
<!-- Generator: Adobe Fireworks 10, Export SVG Extension by Aaron Beall (http://fireworks.abeall.com) . Version: 0.6.1  -->
<!DOCTYPE svg PUBLIC "-//W3C//DTD SVG 1.1//EN" "http://www.w3.org/Graphics/SVG/1.1/DTD/svg11.dtd">
<svg id="Untitled-%u30DA%u30FC%u30B8%201" viewBox="0 0 15 16" style="background-color:#ffffff00" version="1.1"
	xmlns="http://www.w3.org/2000/svg" xmlns:xlink="http://www.w3.org/1999/xlink" xml:space="preserve"
	x="0px" y="0px" width="15px" height="16px"
>
	<g id="%u30EC%u30A4%u30E4%u30FC_1_1">
		<g>
			<path d="M 12.0137 5.998 C 11.7354 5.998 11.5098 6.2231 11.5098 6.5015 L 11.5098 14.0537 L 1.0073 14.0537 L 1.0073 3.5518 L 8.4072 3.5518 C 8.686 3.5518 8.9111 3.3262 8.9111 3.0479 C 8.9111 2.7695 8.686 2.5444 8.4072 2.5444 L 0.5034 2.5444 C 0.2251 2.5444 0 2.7695 0 3.0479 L 0 14.5571 C 0 14.8359 0.2251 15.061 0.5034 15.061 L 12.0137 15.061 C 12.292 15.061 12.5171 14.8359 12.5171 14.5571 L 12.5171 6.5015 C 12.5171 6.2231 12.292 5.998 12.0137 5.998 Z" fill="#ffffff"/>
			<path d="M 14.9619 0.3154 C 14.9614 0.314 14.9624 0.3125 14.9614 0.311 C 14.9614 0.3105 14.9609 0.3105 14.9609 0.3101 C 14.9268 0.2275 14.8667 0.1631 14.7969 0.1099 C 14.7798 0.0967 14.7646 0.0864 14.7461 0.0757 C 14.6714 0.0317 14.5894 0 14.4966 0 L 10.8618 0 C 10.5835 0 10.3579 0.2251 10.3579 0.5034 C 10.3579 0.7822 10.5835 1.0073 10.8618 1.0073 L 13.2803 1.0073 L 5.8721 8.4165 C 5.6753 8.6128 5.6753 8.9316 5.8721 9.1284 C 5.9702 9.2271 6.0991 9.2759 6.228 9.2759 C 6.3569 9.2759 6.4858 9.2271 6.584 9.1284 L 13.9927 1.7197 L 13.9927 3.8354 C 13.9927 4.1138 14.2178 4.3389 14.4966 4.3389 C 14.7749 4.3389 15 4.1138 15 3.8354 L 15 0.5034 C 15 0.437 14.9858 0.374 14.9619 0.3154 Z" fill="#ffffff"/>
		</g>
	</g>
</svg>