<?xml version="1.0" standalone="no"?>
<!-- Generator: Adobe Fireworks 10, Export SVG Extension by Aaron Beall (http://fireworks.abeall.com) . Version: 0.6.1  -->
<!DOCTYPE svg PUBLIC "-//W3C//DTD SVG 1.1//EN" "http://www.w3.org/Graphics/SVG/1.1/DTD/svg11.dtd">
<svg id="Untitled-%u30DA%u30FC%u30B8%201" viewBox="0 0 14 14" style="background-color:#ffffff00" version="1.1"
	xmlns="http://www.w3.org/2000/svg" xmlns:xlink="http://www.w3.org/1999/xlink" xml:space="preserve"
	x="0px" y="0px" width="14px" height="14px"
>
	<g id="%u30EC%u30A4%u30E4%u30FC_1_1">
		<g>
			<path d="M 13.6665 0 C 13.7593 0 13.8379 0.0327 13.9028 0.0972 C 13.9673 0.1621 14 0.2407 14 0.3335 L 14 5.8887 C 14 5.9814 13.9673 6.0601 13.9028 6.125 C 13.8379 6.1899 13.7593 6.2222 13.6665 6.2222 L 8.1113 6.2222 C 8.0186 6.2222 7.9399 6.1899 7.875 6.125 C 7.8101 6.0601 7.7778 5.9814 7.7778 5.8887 L 7.7778 4.5835 C 7.7778 4.4907 7.8101 4.4121 7.875 4.3472 C 7.9399 4.2827 8.0278 4.25 8.1387 4.25 L 10.9443 4.3887 C 10.5 3.7222 9.9214 3.1943 9.2085 2.8057 C 8.4951 2.4165 7.7222 2.2222 6.8887 2.2222 C 6 2.2222 5.1807 2.4399 4.4307 2.875 C 3.6807 3.3101 3.0879 3.9028 2.6528 4.6528 C 2.2178 5.4028 2 6.2222 2 7.1113 C 2 8 2.2178 8.8193 2.6528 9.5693 C 3.0879 10.3193 3.6807 10.9121 4.4307 11.3472 C 5.1807 11.7827 6 12 6.8887 12 C 7.5 12 8.0835 11.8936 8.6387 11.6807 C 9.1943 11.4673 9.6851 11.1665 10.1113 10.7778 C 10.1851 10.7222 10.2637 10.6943 10.3472 10.6943 C 10.4307 10.6943 10.5093 10.7314 10.5835 10.8057 L 11.5278 11.75 C 11.5835 11.8057 11.6113 11.8843 11.6113 11.9863 C 11.6113 12.0879 11.5742 12.1665 11.5 12.2222 C 10.8887 12.7778 10.1851 13.2129 9.3887 13.5278 C 8.5923 13.8423 7.7593 14 6.8887 14 C 5.6479 14 4.5 13.6899 3.4443 13.0693 C 2.3887 12.4492 1.5508 11.6157 0.9307 10.5693 C 0.3101 9.5229 0 8.375 0 7.125 C 0 5.875 0.3101 4.7222 0.9307 3.6665 C 1.5508 2.6113 2.3887 1.7729 3.4443 1.1528 C 4.5 0.5327 5.6479 0.2222 6.8887 0.2222 C 7.9258 0.2222 8.8979 0.4351 9.8057 0.8613 C 10.7129 1.2871 11.4907 1.8799 12.1387 2.6387 L 12.0278 0.3613 C 12.0278 0.25 12.0601 0.1621 12.125 0.0972 C 12.1899 0.0327 12.2686 0 12.3613 0 L 13.6665 0 Z" fill="#ffffff"/>
		</g>
	</g>
</svg>