<?xml version="1.0" standalone="no"?>
<!-- Generator: Adobe Fireworks 10, Export SVG Extension by Aaron Beall (http://fireworks.abeall.com) . Version: 0.6.1  -->
<!DOCTYPE svg PUBLIC "-//W3C//DTD SVG 1.1//EN" "http://www.w3.org/Graphics/SVG/1.1/DTD/svg11.dtd">
<svg id="Untitled-%u30DA%u30FC%u30B8%201" viewBox="0 0 28 23" style="background-color:#ffffff00" version="1.1"
	xmlns="http://www.w3.org/2000/svg" xmlns:xlink="http://www.w3.org/1999/xlink" xml:space="preserve"
	x="0px" y="0px" width="28px" height="23px"
>
	<g id="%u30EC%u30A4%u30E4%u30FC_1_1">
		<g>
			<path d="M 7.5176 22.6074 C 5.9224 22.6074 4.6245 21.3101 4.6245 19.7163 C 4.6245 18.1221 5.9224 16.8257 7.5176 16.8257 C 9.1113 16.8257 10.4077 18.1221 10.4077 19.7163 C 10.4077 21.3101 9.1113 22.6074 7.5176 22.6074 ZM 7.5176 18.6978 C 6.9546 18.6978 6.4966 19.1548 6.4966 19.7163 C 6.4966 20.2783 6.9546 20.7354 7.5176 20.7354 C 8.0791 20.7354 8.5356 20.2783 8.5356 19.7163 C 8.5356 19.1548 8.0791 18.6978 7.5176 18.6978 Z" fill="#ffffff"/>
			<path d="M 14.563 22.6074 C 12.9683 22.6074 11.6704 21.3101 11.6704 19.7163 C 11.6704 18.1221 12.9683 16.8257 14.563 16.8257 C 16.1572 16.8257 17.4541 18.1221 17.4541 19.7163 C 17.4541 21.3101 16.1572 22.6074 14.563 22.6074 ZM 14.563 18.6978 C 14 18.6978 13.5425 19.1548 13.5425 19.7163 C 13.5425 20.2783 14 20.7354 14.563 20.7354 C 15.125 20.7354 15.582 20.2783 15.582 19.7163 C 15.582 19.1548 15.125 18.6978 14.563 18.6978 Z" fill="#ffffff"/>
			<path d="M 17.8135 15.4756 L 4.4248 15.4756 C 4.0322 15.4756 3.6816 15.2305 3.5464 14.8623 L 0.0576 5.3643 C -0.0483 5.0771 -0.0063 4.7568 0.1685 4.5059 C 0.3438 4.2549 0.6304 4.1055 0.936 4.1055 L 17.1616 4.1055 C 17.6787 4.1055 18.0977 4.5249 18.0977 5.0415 C 18.0977 5.5586 17.6787 5.9775 17.1616 5.9775 L 2.2769 5.9775 L 5.0781 13.6035 L 17.1353 13.6035 L 21.3872 0.6445 C 21.5137 0.2603 21.8721 0 22.2769 0 L 27.064 0 C 27.5811 0 28 0.4189 28 0.936 C 28 1.4531 27.5811 1.8721 27.064 1.8721 L 22.9551 1.8721 L 18.7026 14.8311 C 18.5767 15.2158 18.2183 15.4756 17.8135 15.4756 Z" fill="#ffffff"/>
		</g>
	</g>
</svg>