<?xml version="1.0" standalone="no"?>
<!-- Generator: Adobe Fireworks 10, Export SVG Extension by Aaron Beall (http://fireworks.abeall.com) . Version: 0.6.1  -->
<!DOCTYPE svg PUBLIC "-//W3C//DTD SVG 1.1//EN" "http://www.w3.org/Graphics/SVG/1.1/DTD/svg11.dtd">
<svg id="Untitled-%u30DA%u30FC%u30B8%201" viewBox="0 0 22 24" style="background-color:#ffffff00" version="1.1"
	xmlns="http://www.w3.org/2000/svg" xmlns:xlink="http://www.w3.org/1999/xlink" xml:space="preserve"
	x="0px" y="0px" width="22px" height="24px"
>
	<g id="%u30EC%u30A4%u30E4%u30FC_1_1">
		<path d="M 21.7217 21.543 L 15.1665 14.2637 C 16.4141 12.8198 17.1489 10.9995 17.2495 9.0776 C 17.3701 6.7759 16.5884 4.5654 15.0459 2.8511 C 13.5049 1.1401 11.3872 0.1318 9.083 0.0107 C 6.7915 -0.1016 4.5684 0.6714 2.8564 2.2119 C 1.1436 3.7549 0.1333 5.8721 0.0122 8.1738 C -0.1084 10.4761 0.6753 12.6875 2.2173 14.4014 C 3.7603 16.1143 5.8774 17.1235 8.1802 17.2446 C 10.1021 17.3496 11.9888 16.8047 13.5542 15.7153 L 20.1104 22.9956 C 20.3247 23.2324 20.6196 23.3525 20.9155 23.3525 C 21.1743 23.3525 21.4351 23.2603 21.6431 23.0732 C 21.856 22.8809 21.9819 22.6162 21.9985 22.3237 C 22.0132 22.0361 21.915 21.7593 21.7217 21.543 ZM 8.293 15.0796 C 6.5693 14.9888 4.9844 14.2324 3.8291 12.9492 C 2.6743 11.6665 2.0879 10.0112 2.1787 8.2871 C 2.2681 6.564 3.0244 4.9785 4.3071 3.8237 C 5.54 2.7134 7.0869 2.167 8.6279 2.167 C 10.397 2.167 12.1592 2.8867 13.4336 4.3018 L 13.4321 4.3018 C 14.5879 5.5854 15.1753 7.2407 15.0845 8.9639 C 14.9941 10.688 14.2373 12.2734 12.9546 13.4272 C 11.6724 14.583 10.0078 15.1704 8.293 15.0796 Z" fill="#ffffff"/>
	</g>
</svg>