<?xml version="1.0" standalone="no"?>
<!-- Generator: Adobe Fireworks 10, Export SVG Extension by Aaron Beall (http://fireworks.abeall.com) . Version: 0.6.1  -->
<!DOCTYPE svg PUBLIC "-//W3C//DTD SVG 1.1//EN" "http://www.w3.org/Graphics/SVG/1.1/DTD/svg11.dtd">
<svg id="Untitled-%u30DA%u30FC%u30B8%201" viewBox="0 0 22 24" style="background-color:#ffffff00" version="1.1"
	xmlns="http://www.w3.org/2000/svg" xmlns:xlink="http://www.w3.org/1999/xlink" xml:space="preserve"
	x="0px" y="0px" width="22px" height="24px"
>
	<g id="%u30EC%u30A4%u30E4%u30FC_1_1">
		<g>
			<path d="M 11 13.2729 C 7.3403 13.2729 4.3633 10.2959 4.3633 6.6367 C 4.3633 2.9771 7.3403 0 11 0 C 14.6592 0 17.6362 2.9771 17.6362 6.6367 C 17.6362 10.2959 14.6592 13.2729 11 13.2729 ZM 11 0.918 C 7.8467 0.918 5.2813 3.4834 5.2813 6.6367 C 5.2813 9.7896 7.8467 12.355 11 12.355 C 14.1533 12.355 16.7183 9.7896 16.7183 6.6367 C 16.7183 3.4834 14.1533 0.918 11 0.918 Z" fill="#ffffff"/>
			<path d="M 21.541 23.8135 C 21.2876 23.8135 21.082 23.6084 21.082 23.355 C 21.082 17.7959 16.5591 13.2729 11 13.2729 C 5.4409 13.2729 0.918 17.7959 0.918 23.355 C 0.918 23.6084 0.7124 23.8135 0.459 23.8135 C 0.2051 23.8135 0 23.6084 0 23.355 C 0 17.2896 4.9341 12.355 11 12.355 C 17.0654 12.355 22 17.2896 22 23.355 C 22 23.6084 21.7949 23.8135 21.541 23.8135 Z" fill="#ffffff"/>
		</g>
	</g>
</svg>