<?xml version="1.0" standalone="no"?>
<!-- Generator: Adobe Fireworks 10, Export SVG Extension by Aaron Beall (http://fireworks.abeall.com) . Version: 0.6.1  -->
<!DOCTYPE svg PUBLIC "-//W3C//DTD SVG 1.1//EN" "http://www.w3.org/Graphics/SVG/1.1/DTD/svg11.dtd">
<svg id="Untitled-%u30DA%u30FC%u30B8%201" viewBox="0 0 16 16" style="background-color:#ffffff00" version="1.1"
	xmlns="http://www.w3.org/2000/svg" xmlns:xlink="http://www.w3.org/1999/xlink" xml:space="preserve"
	x="0px" y="0px" width="16px" height="16px"
>
	<g id="%u30EC%u30A4%u30E4%u30FC_1_1">
		<g>
			<path d="M 5.5 7 L 4.5 7 C 4.2246 7 4 7.2246 4 7.5 L 4 8.5 C 4 8.7754 4.2246 9 4.5 9 L 5.5 9 C 5.7754 9 6 8.7754 6 8.5 L 6 7.5 C 6 7.2246 5.7754 7 5.5 7 Z" fill="#000000"/>
			<path d="M 8.5 7 L 7.5 7 C 7.2246 7 7 7.2246 7 7.5 L 7 8.5 C 7 8.7754 7.2246 9 7.5 9 L 8.5 9 C 8.7754 9 9 8.7754 9 8.5 L 9 7.5 C 9 7.2246 8.7754 7 8.5 7 Z" fill="#000000"/>
			<path d="M 11.5 7 L 10.5 7 C 10.2246 7 10 7.2246 10 7.5 L 10 8.5 C 10 8.7754 10.2246 9 10.5 9 L 11.5 9 C 11.7754 9 12 8.7754 12 8.5 L 12 7.5 C 12 7.2246 11.7754 7 11.5 7 Z" fill="#000000"/>
			<path d="M 5.5 10 L 4.5 10 C 4.2246 10 4 10.2246 4 10.5 L 4 11.5 C 4 11.7754 4.2246 12 4.5 12 L 5.5 12 C 5.7754 12 6 11.7754 6 11.5 L 6 10.5 C 6 10.2246 5.7754 10 5.5 10 Z" fill="#000000"/>
			<path d="M 8.5 10 L 7.5 10 C 7.2246 10 7 10.2246 7 10.5 L 7 11.5 C 7 11.7754 7.2246 12 7.5 12 L 8.5 12 C 8.7754 12 9 11.7754 9 11.5 L 9 10.5 C 9 10.2246 8.7754 10 8.5 10 Z" fill="#000000"/>
			<path d="M 11.5 10 L 10.5 10 C 10.2246 10 10 10.2246 10 10.5 L 10 11.5 C 10 11.7754 10.2246 12 10.5 12 L 11.5 12 C 11.7754 12 12 11.7754 12 11.5 L 12 10.5 C 12 10.2246 11.7754 10 11.5 10 Z" fill="#000000"/>
			<path d="M 13 1 L 12 1 L 12 0.5 C 12 0.2246 11.7754 0 11.5 0 L 10.5 0 C 10.2246 0 10 0.2246 10 0.5 L 10 1 L 6 1 L 6 0.5 C 6 0.2246 5.7754 0 5.5 0 L 4.5 0 C 4.2246 0 4 0.2246 4 0.5 L 4 1 L 3 1 C 1.3496 1 0 2.3496 0 4 L 0 13 C 0 14.6504 1.3496 16 3 16 L 13 16 C 14.6504 16 16 14.6504 16 13 L 16 4 C 16 2.3496 14.6504 1 13 1 ZM 14 13 C 14 13.541 13.542 14 13 14 L 3 14 C 2.458 14 2 13.541 2 13 L 2 4 C 2 3.457 2.458 3 3 3 L 4 3 L 4 3.5 C 4 3.7754 4.2246 4 4.5 4 L 5.5 4 C 5.7754 4 6 3.7754 6 3.5 L 6 3 L 10 3 L 10 3.5 C 10 3.7754 10.2246 4 10.5 4 L 11.5 4 C 11.7754 4 12 3.7754 12 3.5 L 12 3 L 13 3 C 13.542 3 14 3.457 14 4 L 14 13 Z" fill="#000000"/>
		</g>
	</g>
</svg>