<?xml version="1.0" standalone="no"?>
<!-- Generator: Adobe Fireworks 10, Export SVG Extension by Aaron Beall (http://fireworks.abeall.com) . Version: 0.6.1  -->
<!DOCTYPE svg PUBLIC "-//W3C//DTD SVG 1.1//EN" "http://www.w3.org/Graphics/SVG/1.1/DTD/svg11.dtd">
<svg id="Untitled-%u30DA%u30FC%u30B8%201" viewBox="0 0 160 166" style="background-color:#ffffff00" version="1.1"
	xmlns="http://www.w3.org/2000/svg" xmlns:xlink="http://www.w3.org/1999/xlink" xml:space="preserve"
	x="0px" y="0px" width="160px" height="166px"
>
	<g id="%u30EC%u30A4%u30E4%u30FC_1_1">
		<g>
			<path opacity="0.5176" d="M 81.8809 165.5356 C 81.7129 165.5376 81.5444 165.5396 81.375 165.5415 C 75.1128 165.6011 70.2617 160.0708 71.1519 153.8716 L 71.1528 153.8647 C 71.877 148.8223 76.2046 145.0791 81.2988 145.1133 C 81.4673 145.1143 81.6353 145.1152 81.8037 145.1147 C 86.8892 145.1094 91.188 148.875 91.8882 153.9116 L 91.8882 153.9116 C 92.7358 160.0112 88.0391 165.46 81.8809 165.5356 Z" fill="#ffffff"/>
			<path opacity="0.4392" d="M 106.9023 150.3545 L 106.769 150.02 C 104.8804 145.2813 106.7637 139.8677 111.2021 137.3535 C 111.3618 137.2632 111.521 137.1719 111.6792 137.0801 C 116.0977 134.5278 121.7217 135.6504 124.8486 139.6831 L 125.0688 139.9673 C 128.8379 144.8281 127.54 151.959 122.2192 155.0444 C 121.9287 155.2134 121.6367 155.3799 121.3438 155.5454 C 115.9858 158.5688 109.1802 156.0693 106.9023 150.3545 Z" fill="#ffffff"/>
			<path opacity="0.6" d="M 41.5156 155.6201 C 41.2109 155.4448 40.9077 155.2681 40.6055 155.0894 C 35.0815 151.8252 33.7842 144.3784 37.7515 139.335 L 37.9834 139.0405 C 41.2798 134.8491 47.1665 133.7207 51.7612 136.4258 C 51.9272 136.5239 52.0942 136.6211 52.2607 136.7173 C 56.877 139.3833 58.7949 145.0586 56.7744 149.9912 L 56.6323 150.3389 C 54.1997 156.2773 47.0781 158.8203 41.5156 155.6201 Z" fill="#ffffff"/>
			<path opacity="0.3569" d="M 136.269 128.7759 L 135.9976 128.562 C 132.1499 125.5293 131.1182 120.1191 133.6084 115.8999 C 133.6987 115.7471 133.7876 115.5947 133.8765 115.4414 C 136.3306 111.2017 141.5474 109.4448 146.0786 111.3062 L 146.3979 111.4375 C 151.8525 113.6787 154.1821 120.2246 151.2363 125.333 C 151.0752 125.6123 150.9121 125.8906 150.748 126.168 C 147.7432 131.2412 140.8989 132.4263 136.269 128.7759 Z" fill="#ffffff"/>
			<path opacity="0.6784" d="M 11.5142 126.2769 C 11.3325 125.9639 11.1523 125.6504 10.9741 125.335 C 7.7153 119.5742 10.3965 112.249 16.5425 109.792 L 16.9023 109.6484 C 21.9985 107.6104 27.8257 109.6309 30.5361 114.4038 C 30.6338 114.5752 30.7319 114.7461 30.8306 114.917 C 33.5825 119.668 32.3804 125.7202 28.0444 129.0889 L 27.7388 129.3267 C 22.5132 133.3867 14.8398 131.998 11.5142 126.2769 Z" fill="#ffffff"/>
			<path opacity="0.2784" d="M 149.1812 95.3335 L 148.9443 95.2993 C 144.3125 94.6284 140.8779 90.6714 140.8398 85.9917 C 140.8379 85.7778 140.8359 85.5645 140.833 85.3525 C 140.7705 80.5898 144.2441 76.5205 148.9595 75.8496 L 149.1948 75.8159 C 154.8491 75.0117 159.9063 79.3584 159.9897 85.0693 C 159.9937 85.3301 159.9971 85.5923 159.9995 85.8555 C 160.0586 91.6646 154.9307 96.166 149.1812 95.3335 Z" fill="#ffffff"/>
			<path opacity="0.7569" d="M 13.687 96.8008 L 12.9961 96.8926 C 6.1855 97.7993 0.0293 92.5581 0.001 85.688 C -0.0005 85.3208 0 84.9536 0.0024 84.5869 C 0.0518 77.6982 6.2798 72.4844 13.1006 73.4575 L 13.7881 73.5552 C 19.4141 74.3579 23.5874 79.1587 23.6406 84.8413 C 23.6416 84.98 23.6431 85.1191 23.645 85.2573 C 23.7144 91.0737 19.4531 96.0332 13.687 96.8008 Z" fill="#ffffff"/>
			<path opacity="0.2" d="M 135.5752 54.6685 C 135.5039 54.543 135.4316 54.418 135.3589 54.2935 C 133.3335 50.812 134.2061 46.3706 137.3813 43.8926 L 137.6055 43.7178 C 141.4326 40.731 147.0649 41.7378 149.5132 45.9302 C 149.647 46.1592 149.7798 46.3892 149.9106 46.6196 C 152.3105 50.8418 150.3535 56.2197 145.8477 58.0317 L 145.584 58.1377 C 141.8481 59.6396 137.5708 58.166 135.5752 54.6685 Z" fill="#ffffff"/>
			<path opacity="0.8392" d="M 16.731 61.519 L 16.3452 61.3618 C 9.7573 58.6704 6.9302 50.7769 10.4727 44.605 C 10.666 44.2676 10.8618 43.9316 11.0591 43.5967 C 14.6729 37.4678 22.9282 36.0205 28.5249 40.4131 L 28.8525 40.6704 C 33.5039 44.3208 34.7627 50.8472 31.7676 55.9458 C 31.6597 56.1299 31.5522 56.314 31.4458 56.499 C 28.4951 61.6211 22.2036 63.7544 16.731 61.519 Z" fill="#ffffff"/>
			<path opacity="0.1176" d="M 113.4126 31.2178 C 113.2993 31.1514 113.1855 31.085 113.0713 31.0195 C 109.9165 29.2061 108.5996 25.3345 109.9722 21.9648 L 110.0688 21.7271 C 111.7212 17.6699 116.5786 15.9243 120.3804 18.1011 C 120.5884 18.2202 120.7954 18.3403 121.002 18.4619 C 124.7773 20.6821 125.6733 25.7637 122.9727 29.2119 L 122.8145 29.4136 C 120.5703 32.2793 116.5532 33.0581 113.4126 31.2178 Z" fill="#ffffff"/>
			<path opacity="0.9176" d="M 35.3013 32.8813 L 35.0225 32.5229 C 30.2534 26.3979 31.8721 17.3945 38.5796 13.4863 C 38.9463 13.2729 39.3145 13.0615 39.6831 12.8521 C 46.4375 9.0225 55.0342 12.1597 57.9233 19.3667 L 58.0928 19.7886 C 60.4883 25.7642 58.1255 32.6016 52.5303 35.7866 C 52.3291 35.9009 52.1289 36.0161 51.9287 36.1323 C 46.3589 39.3657 39.2583 37.9629 35.3013 32.8813 Z" fill="#ffffff"/>
			<path d="M 82.4155 31.0669 C 82.2925 31.0679 82.1699 31.0693 82.0474 31.0708 C 74.2969 31.1528 67.6943 25.4731 66.6563 17.792 L 66.603 17.3984 C 65.3682 8.2627 72.4077 0.1191 81.626 0.0063 C 81.7837 0.0044 81.9424 0.0024 82.1006 0.001 C 91.4927 -0.0986 98.7759 8.1899 97.459 17.4893 L 97.4033 17.8833 C 96.3428 25.3726 89.9795 31.0005 82.4155 31.0669 Z" fill="#ffffff"/>
		</g>
	</g>
</svg>