<?xml version="1.0" standalone="no"?>
<!-- Generator: Adobe Fireworks 10, Export SVG Extension by Aaron Beall (http://fireworks.abeall.com) . Version: 0.6.1  -->
<!DOCTYPE svg PUBLIC "-//W3C//DTD SVG 1.1//EN" "http://www.w3.org/Graphics/SVG/1.1/DTD/svg11.dtd">
<svg id="Untitled-%u30DA%u30FC%u30B8%201" viewBox="0 0 71 47" style="background-color:#ffffff00" version="1.1"
	xmlns="http://www.w3.org/2000/svg" xmlns:xlink="http://www.w3.org/1999/xlink" xml:space="preserve"
	x="0px" y="0px" width="71px" height="47px"
>
	<defs>
		<clipPath id="mask1">
			<path d="M 0 0 L 71 0 L 71 47 L 0 47 L 0 0 Z" fill="none"/>
		</clipPath>
	</defs>
	<g id="%u30EC%u30A4%u30E4%u30FC_1_1">
			<path d="M 0 0 L 71 0 L 71 47 L 0 47 L 0 0 Z" fill="none"/>
		<g clip-path="url(#mask1)">
			<g>
				<path d="M 0 47 L 71 47 L 71 0 L 0 0 L 0 47 Z" fill="#dd280f"/>
				<path d="M 7.75 17.0142 L 9.2622 12.3242 L 5.2876 9.4077 L 10.2144 9.3984 L 11.7524 4.7178 L 13.2837 9.3984 L 18.2124 9.417 L 14.231 12.3242 L 15.7363 17.0142 L 11.7476 14.1157 L 7.75 17.0142 Z" fill="#f6dd28"/>
				<path d="M 21.4907 19.5464 L 23.1577 20.2217 L 24.3135 18.8433 L 24.1895 20.6343 L 25.8545 21.3101 L 24.1123 21.7505 L 23.9829 23.5234 L 23.0288 22.0132 L 21.291 22.4355 L 22.438 21.0659 L 21.4907 19.5464 Z" fill="#f6dd28"/>
				<path d="M 30.4995 10.5327 L 28.7314 10.2236 L 27.8848 11.8086 L 27.6367 10.0356 L 25.8662 9.7075 L 27.4771 8.9292 L 27.2329 7.147 L 28.4834 8.4321 L 30.0942 7.6538 L 29.252 9.2388 L 30.4995 10.5327 Z" fill="#f6dd28"/>
				<path d="M 26.75 18.562 L 27.2964 16.8545 L 25.8496 15.7949 L 27.646 15.7949 L 28.1992 14.0879 L 28.7573 15.7949 L 30.5537 15.7949 L 29.1064 16.8545 L 29.6509 18.562 L 28.1992 17.5112 L 26.75 18.562 Z" fill="#f6dd28"/>
				<path d="M 21.582 2.9829 L 23.207 3.7427 L 24.4336 2.4292 L 24.2202 4.2114 L 25.8403 4.9805 L 24.084 5.3184 L 23.8613 7.1001 L 22.9863 5.5337 L 21.228 5.8623 L 22.4473 4.5488 L 21.582 2.9829 Z" fill="#f6dd28"/>
			</g>
		</g>
	</g>
</svg>