<svg width="223" height="99" xmlns="http://www.w3.org/2000/svg" xmlns:xlink="http://www.w3.org/1999/xlink"><defs><path id="a" d="M22.905.544V20.29H.445V.544h22.46z"/><path id="c" d="M0 20.29V.55h19.358v19.74H0z"/></defs><g fill="none" fill-rule="evenodd"><path d="M37.302 63.054c-2.058-.016-4.168-.036-6.228-.05-.042 0-.082-.035-.065-.075a98.81 98.81 0 0 1 1.147-2.435c.568-1.187 1.142-2.38 1.713-3.566.629-1.253 1.29-2.51 1.887-3.83.014-.028.044-.062.08-.062.031 0 .06.016.069.05.386.97.825 1.933 1.231 2.82.29.632 1.265 2.897 1.353 3.117a614.72 614.72 0 0 1 1.725 3.85c.017.034.028.06.034.087a.048.048 0 0 1-.044.07c-.905.027-1.873.008-2.902.024m6.988 1.963c-1.576-3.471-3.15-6.951-4.72-10.433-.593-1.276-1.188-2.58-1.785-3.858a.252.252 0 0 0-.23-.167H34.43a.285.285 0 0 0-.246.148c-.21.318-.355.595-.545.925-.476.924-.955 1.857-1.43 2.786-1.806 3.72-3.795 7.408-5.678 11.12a944.383 944.383 0 0 1-1.689 3.336c-.122.236-.452.98-.591 1.297-.034.065.027.134.105.134h2.735a.285.285 0 0 0 .253-.157c.165-.328 1.487-2.933 2.2-4.34.02-.037.053-.065.095-.065 2.714.014 5.424.022 8.13.034l3.68.041c.056 0 .104.022.122.074l1.892 4.256a.264.264 0 0 0 .238.157h2.895c.077 0 .135-.072.097-.145-.166-.36-.59-1.274-.705-1.49-.566-1.22-1.134-2.437-1.698-3.653m110.393-1.963c-2.064-.016-4.174-.036-6.234-.05-.042 0-.082-.035-.065-.075.195-.452.943-2.017 1.148-2.435.573-1.187 1.143-2.38 1.711-3.566.63-1.253 1.292-2.51 1.888-3.83.018-.028.044-.062.082-.062.03 0 .06.016.07.05.38.97.824 1.933 1.228 2.82a181.49 181.49 0 0 1 1.355 3.117c.572 1.277 1.15 2.558 1.725 3.85.015.034.026.06.033.087a.049.049 0 0 1-.045.07c-.905.027-1.876.008-2.896.024m6.98 1.963c-1.572-3.471-3.144-6.951-4.718-10.433-.593-1.276-1.187-2.58-1.784-3.858-.042-.098-.131-.167-.23-.167h-3.124a.294.294 0 0 0-.248.148c-.21.318-.351.595-.543.925-.48.924-.956 1.857-1.435 2.786-1.806 3.72-3.792 7.408-5.673 11.12-.563 1.114-1.126 2.227-1.69 3.336-.124.236-.454.98-.593 1.297-.029.065.03.134.104.134h2.741c.103 0 .2-.062.248-.157.167-.328 1.49-2.933 2.201-4.34.02-.037.053-.065.093-.065 2.714.014 5.422.022 8.132.034l3.684.041c.052 0 .098.022.12.074.571 1.28 1.612 3.623 1.896 4.256.04.095.13.157.234.157h2.892c.079 0 .135-.072.097-.145a50.657 50.657 0 0 0-.704-1.49c-.565-1.22-1.13-2.437-1.7-3.653" fill="#231F20"/><g transform="translate(199.3 50.015)"><mask id="b" fill="#fff"><use xlink:href="#a"/></mask><path d="M13.505 13.038c-2.058-.015-4.168-.035-6.228-.05-.042 0-.084-.035-.065-.075.193-.451.94-2.016 1.149-2.435.57-1.187 1.14-2.38 1.71-3.565.625-1.253 1.288-2.51 1.887-3.83.016-.029.044-.062.083-.062.029 0 .06.016.068.05.382.97.822 1.933 1.228 2.819.293.633 1.267 2.898 1.357 3.117.572 1.278 1.15 2.56 1.722 3.85.018.035.029.06.04.088a.052.052 0 0 1-.05.07c-.903.027-1.876.008-2.901.023m6.988 1.964a6831.565 6831.565 0 0 1-4.722-10.434c-.59-1.275-1.187-2.579-1.781-3.857-.045-.098-.133-.167-.235-.167h-3.122c-.1 0-.19.056-.247.147-.209.319-.358.595-.544.926L8.41 4.403c-1.803 3.72-3.79 7.407-5.673 11.119l-1.689 3.337c-.124.236-.457.98-.594 1.297-.033.065.028.134.103.134h2.737a.288.288 0 0 0 .253-.157c.163-.328 1.488-2.933 2.2-4.34a.108.108 0 0 1 .098-.066c2.707.014 5.42.023 8.128.035l3.683.04c.05 0 .098.022.12.075.572 1.28 1.61 3.623 1.889 4.256a.269.269 0 0 0 .239.157h2.894c.082 0 .132-.072.099-.145-.168-.36-.592-1.274-.705-1.49-.564-1.22-1.134-2.437-1.698-3.653" fill="#231F20" mask="url(#b)"/></g><path d="M112.481 67.861c0-1.104-.033-2.305-.051-3.525-.015-4.515-.028-9.106-.041-13.61 0-.098-.082-.159-.175-.159-.597 0-2.18-.008-2.539-.008a.496.496 0 0 1-.183 0c-.101 0-.185.08-.185.174-.01.445-.003 1.112 0 1.55.002 1.186.002 2.37.006 3.564l.04 10.852a87.821 87.821 0 0 0 .027 3.437c.006.097.076.17.167.17.778 0 2.011-.005 2.792 0 .094 0 .157-.09.157-.186.005-.63-.015-1.653-.015-2.259m-12.826-2.844c-.013-3.622-.027-7.24-.042-10.86.008-1.049.026-2.525.015-3.43-.002-.085-.072-.168-.165-.168-.762 0-2.1-.003-2.762 0-.089 0-.156.069-.16.167-.02.624.02 1.516.016 2.127a446.447 446.447 0 0 0-.016 3.66c0 .77.004 1.5.004 2.26 0 .048-.045.077-.089.077-.453.009-2.383.033-3.486.022-3.318.011-6.638.026-9.954.038-.04 0-.078-.032-.078-.074-.01-2.676-.015-5.434-.023-8.11 0-.098-.084-.167-.177-.167-.605-.003-2.177-.02-2.535-.006a2.645 2.645 0 0 1-.185 0 .17.17 0 0 0-.19.16c-.015.425 0 1.132.004 1.57 0 1.186.005 2.37.007 3.564.012 3.613.027 7.24.042 10.852.03 1.2.014 1.632.03 3.428 0 .092.074.178.167.178h2.7c.09 0 .164-.069.16-.155-.004-.43-.026-1.628-.017-2.177.015-1.03.05-2.347.033-3.637-.002-.756-.004-1.513-.008-2.278 0-.039.039-.067.08-.067l2.518-.002c3.163-.018 6.328-.031 9.49-.045.463-.014.892.039 1.415.021.037 0 .077.026.077.062.007 2.67.074 5.454.084 8.123 0 .093.08.155.175.166.421.006 1.068-.011 2.752-.011.09 0 .162-.069.162-.155 0-.53.002-1.19-.002-1.579 0-1.185-.038-2.37-.042-3.554m93.806 4.066c.003-.899-.01-1.804-.01-2.702-.001-5.216-.004-10.44-.004-15.653 0-.04-.01-.083-.005-.116 0-.035-.037-.044-.067-.053-.658 0-1.333.009-1.986 0-.58.014-1.147 0-1.723 0a.274.274 0 0 0-.254.155c-2.465 5.035-4.946 10.127-7.403 15.159-.019.036-.054.063-.094.063a.1.1 0 0 1-.09-.063c-2.236-5.025-4.53-10.136-6.768-15.161a.247.247 0 0 0-.235-.153c-.31 0-.64.014-1.059 0h-2.95a.18.18 0 0 0-.173.18c-.03 1.822-.027 3.753.02 5.605 0 2.901-.003 5.8-.003 8.701l.007 3.585c-.011.288 0 1.154 0 1.518a.162.162 0 0 0 .16.157h2.64c.098 0 .18-.069.18-.169a57.964 57.964 0 0 0-.018-1.664l.002-5.476c0-2.813.007-5.621.007-8.437 0-.037.004-.072.012-.116.005-.02.028-.01.039.008.14.289.334.735.45 1.001.39.986.78 1.976 1.17 2.953 1.74 3.88 3.534 7.884 5.272 11.772a.246.246 0 0 0 .223.128c.587 0 1.126-.004 1.79 0 .106 0 .2-.051.245-.145 1.513-3.111 3.078-6.337 4.585-9.447.667-1.34 1.327-2.691 1.994-4.037.36-.693.644-1.32.98-2.05.01-.025.022-.042.038-.042.02 0 .026.017.026.042-.002 1.546-.062 3.66-.028 5.388-.04 3.326-.083 6.807-.125 10.136 0 .093.088.155.185.155.725.011 2.123-.004 2.824 0 .098 0 .164-.074.164-.169 0-.316-.005-.638-.018-1.053M68.53 59.006c-2.015-.868-4.51-.843-6.82-.984-2.167-.135-5.406.23-5.997-1.817-.545-1.87 1.874-2.872 3.167-3.202 2.17-.543 5.447-.458 7.314.507.614.322 1.177.698 1.698 1.107.34.322.486.45.693.722.06.077.159.11.245.061.64-.263 1.793-.841 2.205-1.044a.159.159 0 0 0 .07-.225c-1.193-1.863-4.453-3.443-7.123-3.792-.9-.15-1.682-.161-2.605-.161-.612 0-1.035.05-1.611.094-.979.092-1.894.3-2.722.617-.856.324-1.636.732-2.28 1.248-1.3 1.024-2.862 3.828-1.508 5.93a4.93 4.93 0 0 0 1.44 1.45c1.463.957 3.895 1.158 5.917 1.27.789.023 1.579.054 2.367.083.6.04 1.198.069 1.795.109 2.098.166 4.03.93 4.395 3.059.175 1-.37 1.796-.763 2.251-.206.23-.497.466-.8.668-1.494 1.005-4.145 1.484-6.278 1.201-3.634-.482-5.311-1.68-6.954-4.102a.204.204 0 0 0-.272-.07c-.65.303-1.75.87-2.34 1.23-.077.047-.117.16-.068.243.36.566.729.99 1.115 1.448 1.514 1.783 3.593 2.907 6.117 3.45 1.203.257 3.367.34 4.729.257 4.408-.228 8.115-1.779 8.433-6.112.088-1.168-.299-2.294-.728-3.035-.714-1.221-1.593-1.932-2.832-2.46m66.988-5.86l-3.831 4.971c-.492.691-1.017 1.349-1.494 2.043-.14.194-.238.307-.435.566-.026.032-.075.004-.097-.028-.613-.816-1.038-1.494-1.59-2.238-1.229-1.647-2.413-3.338-3.578-5.01-.227-.323-1.59-2.208-2.01-2.745a.326.326 0 0 0-.282-.138c-.896 0-1.891-.009-2.86-.009-.077 0-.126.08-.084.136.41.613 2.121 3.078 2.986 4.286 1.244 1.734 2.405 3.49 3.683 5.215.598.799 1.157 1.64 1.765 2.447.16.206.316.408.511.691a.224.224 0 0 1 .046.136l.08 6.68c.002.086.079.155.17.155.662.017 2.124 0 2.686 0 .09 0 .166-.069.162-.157-.034-2.24-.03-4.506-.049-6.73 0-.056.026-.107.057-.156 3.112-4.2 6.024-8.27 9.138-12.466.039-.054.076-.108.12-.154.023-.03 0-.083-.042-.083-.962.009-1.948 0-2.91 0-.103 0-.2.044-.263.127a88.75 88.75 0 0 0-1.88 2.461" fill="#231F20"/><g transform="translate(0 50.015)"><mask id="d" fill="#fff"><use xlink:href="#c"/></mask><path d="M18.954.673a.05.05 0 0 0-.03-.092H14.44a.525.525 0 0 0-.302.092c-3.255 2.403-6.506 4.8-9.76 7.199-.342.28-.76.575-1.204.878-.036.02-.068-.014-.068-.05-.01-2.675-.017-5.247-.024-7.93C3.075.59 2.98.545 2.817.553 2.265.558.603.552.232.558c-.147 0-.23.065-.23.204 0 .443-.006 1.04 0 1.538 0 1.185 0 2.368.005 3.567.01 3.615.013 7.241.027 10.873 0 1.018-.02 2.429.002 3.324.004.14.068.226.211.226.684 0 1.757-.004 2.59-.004.154 0 .249-.068.252-.236.015-.567.004-1.46.01-2.023.018-1.035.027-2.358.025-3.664-.003-.564.029-1.238.03-1.723a.342.342 0 0 1 .133-.278c.278-.239.892-.818 1.252-1.107a63.37 63.37 0 0 1 3.22-2.399.422.422 0 0 1 .229-.073c.084 0 .174.092.238.183.942 1.426 1.885 2.855 2.834 4.288 1.494 2.25 2.992 4.504 4.488 6.763.033.051.049.076.093.138.082.119.166.135.355.135h3.268c.07 0 .117-.072.082-.128-2.919-4.405-5.84-8.804-8.758-13.21-.027-.041-.022-.1.02-.128 2.779-2.05 5.56-4.1 8.346-6.151" fill="#231F20" mask="url(#d)"/></g><path d="M132.137 90.056c0 .056.037.1.091.1h3.563c.01 0 .016 0 .028.011.007.005.012.027.012.04.014 2.482.018 7.2.018 7.928 0 .047.036.095.088.095h1.289c.05 0 .09-.048.09-.095 0-.73.005-5.466.012-7.91-.007-.053.032-.068.083-.068.206 0 2.664.01 3.71 0 .052 0 .098-.034.098-.084.005-.267 0-.766 0-1.038 0-.052-.05-.093-.108-.093h-8.862c-.054 0-.111.029-.111.085l-.001 1.029M59.429 98.23h1.115c.043 0 .08-.042.08-.083.003-.813-.01-2.076 0-2.35 0-.376-.004-.751-.004-1.125.058-1.93-.69-2.744-2.232-2.962-.322-.048-.817-.014-1.172.061-.463.101-.762.274-1.092.532a4.08 4.08 0 0 0-.42.37.038.038 0 0 1-.064-.028c.002-.481.006-.788-.009-1.271v-2.338a.092.092 0 0 0-.09-.094h-1.05c-.054 0-.095.055-.095.115-.006 1.22-.02 5.29-.02 5.6v.764c.01.2.006.358.006.515 0 .73-.013 1.458-.011 2.179 0 .059.048.115.11.115.316-.003.691 0 1 0a.095.095 0 0 0 .093-.095c0-.08 0-.156.004-.272-.004-.3-.008-.757-.01-1.375.015-.559 0-.872.015-1.435.015-.525.048-.83.156-1.114.135-.368.5-.673.83-.873.239-.14.378-.224.84-.292.865-.13 1.742.292 1.94 1.047.13.493.073 1.062.097 1.561-.009.58-.02 2.475-.017 2.848m98.667-9.194c0-.053-.038-.094-.09-.094h-1.012c-.05 0-.093.04-.093.094v9.099c0 .053.042.095.093.095h1.011c.055 0 .09-.042.09-.095v-9.1m-48.883 5.554c.025-.026.07 0 .07.044.002.53.037 1.35-.077 1.565-.364.682-1.23 1.044-2.087 1.165-.635.08-1.189-.11-1.397-.418-.316-.463-.069-1.013.278-1.247.534-.375 1.279-.507 2.011-.69.43-.108.94-.155 1.202-.419m-1.305-.63c-1.532.325-3.067.458-3.48 1.956-.366 1.332.429 2.084 1.454 2.338.675.172 1.59.066 1.917-.021.616-.167.996-.395 1.582-.869.01-.016.019-.016.028-.012.01.012.015.014.015.026.216.82 1.028.957 1.99.876.054-.015.094-.052.096-.102.003-.263.003-.63 0-.88 0-.052-.046-.1-.1-.1-.306.01-.478.032-.63-.041-.277-.134-.29-.521-.277-1.174 0-.287 0-.665-.004-.965.012-.79.037-1.622-.119-2.08-.344-1.015-1.567-1.188-2.722-1.205-.444 0-.916.08-1.208.166-.984.269-1.463.68-1.993 1.363-.029.042-.016.1.026.122.168.117.509.325.764.471.04.026.093.017.12-.022.481-.715 1.377-1.186 2.676-1.11.425.031 1.06.139 1.207.5.211.505-.976.677-1.342.764m39.05.629c.025-.026.069 0 .069.044.004.53.04 1.35-.074 1.565-.365.682-1.234 1.044-2.084 1.165-.64.08-1.194-.11-1.402-.418-.315-.463-.066-1.013.278-1.247.537-.375 1.279-.507 2.014-.69.427-.108.94-.155 1.199-.419m-1.305-.63c-1.53.325-3.066.458-3.475 1.956-.366 1.332.426 2.084 1.446 2.338.68.172 1.592.066 1.92-.021.614-.167.998-.395 1.587-.869.003-.016.014-.016.025-.012.01.012.013.014.015.026.216.82 1.024.957 1.99.876.053-.015.093-.052.093-.102.002-.263.008-.63 0-.88 0-.052-.045-.1-.1-.1-.309.01-.475.032-.627-.041-.279-.134-.292-.521-.28-1.174v-.965c.011-.79.036-1.622-.121-2.08-.35-1.015-1.568-1.188-2.723-1.205-.443 0-.913.08-1.207.166-.987.269-1.463.68-1.991 1.363a.082.082 0 0 0 .026.122c.163.117.506.325.76.471a.09.09 0 0 0 .123-.022c.48-.715 1.378-1.186 2.672-1.11.43.031 1.06.139 1.212.5.208.505-.979.677-1.345.764m-79.784-1.141a1.77 1.77 0 0 1 .69-.164c.261-.002.566.014.84.114.5.172 1.154.788 1.258 1.445.008.056-.044.104-.106.104-.454.02-1.651.029-2.024.033-.276-.004-.553-.004-.828-.006-.398-.017-.636-.017-.96-.04a.102.102 0 0 1-.089-.12c.124-.579.766-1.163 1.219-1.366m3.587 4.453c.177-.206.34-.408.522-.753.021-.037.002-.087-.038-.114a16.59 16.59 0 0 0-.758-.364c-.048-.02-.105-.02-.132.024-.08.15-.172.283-.26.405a2.578 2.578 0 0 1-1.199.771c-1.163.359-2.292-.177-2.726-.885-.126-.201-.276-.463-.281-.863 0-.064.05-.106.11-.106.407 0 1.263.019 1.627.014 1.193.005 2.413.005 3.606.005.048 0 .09-.03.09-.083a4.22 4.22 0 0 0-.188-1.344c-.304-.921-.748-1.542-1.568-1.959a3.427 3.427 0 0 0-.905-.288 4.686 4.686 0 0 0-.915-.037c-.288.014-.543.092-.777.155-.572.153-.94.436-1.306.736a2.57 2.57 0 0 0-.524.604c-.91 1.376-.61 3.375.507 4.41 1.309 1.211 3.87 1.047 5.115-.328m83.7-7.882c0-.056-.04-.098-.092-.098h-1.016c-.049 0-.09.042-.09.097v1.175c0 .055.041.089.09.089h1.016c.053 0 .092-.034.092-.089V89.39m0 2.485a.09.09 0 0 0-.092-.088h-1.007c-.047 0-.091.04-.091.088l-.009 6.26c0 .052.042.083.09.094h1.007a.097.097 0 0 0 .094-.094l.008-6.26m-52.743 3.347c-.004.885.002 2.52.007 2.913 0 .053.042.095.092.095h.956c.048 0 .09-.042.09-.095 0-.306-.004-1.327 0-1.911-.004-.49-.004-.824-.006-1.04.006-.458-.013-.656-.022-1.005-.037-1.718-.879-2.316-2.438-2.392a3.174 3.174 0 0 0-.831.064c-.557.133-.899.282-1.311.657-.145.13-.235.262-.352.403-.03.047-.081.002-.102-.036a1.508 1.508 0 0 1-.083-.179 2.375 2.375 0 0 0-.548-.555c-.748-.485-2.145-.445-2.883-.008-.249.145-.402.28-.627.487-.004.008-.01.014-.015.025-.03.025-.073-.007-.073-.048-.002-.24-.007-.464-.007-.734 0-.041-.038-.076-.08-.076H91.16c-.044 0-.086.035-.088.072-.002.775.02 1.355.024 2.115.004.253.004.507.004.766-.004 1.126-.004 2.244-.009 3.372 0 .062.04.118.095.118l.983-.003c.057 0 .097-.053.097-.112v-1.411c.006-.925.008-1.69.018-2.616.1-.63.532-.906.911-1.08.274-.122.636-.208.912-.202 1.715.063 1.603.968 1.607 2.662l-.002 1.547c0 .322 0 .917.002 1.136 0 .044.046.079.09.079h.983a.097.097 0 0 0 .095-.095c0-.452.002-2.566.006-3.349.014-.288-.03-.752.067-1.078.143-.472.708-.766 1.21-.896a2.59 2.59 0 0 1 1.002.007c.472.123.79.3 1.002.667.214.365.239 1.103.243 1.736m23.371-2.286c.328 0 .692-.005 1.031-.005.049 0 .1-.028.1-.077 0-.216.003-.7 0-.934-.002-.057-.053-.083-.107-.083h-1.351c-.054 0-.09-.05-.09-.1l.002-1.592c0-.044-.045-.072-.093-.09h-1.012a.093.093 0 0 0-.093.09v1.593c0 .05-.04.099-.093.099h-1.2c-.056 0-.11.035-.11.091v.914c0 .056.046.094.093.094.427 0 .896-.005 1.214-.005.059 0 .096.069.096.12.003.39.007.892.003 1.234-.003.668-.008 1.408-.006 2.071.003.715.003 1.088.237 1.412.334.462.778.568 1.452.589.19.003.724-.03 1.041-.13.049-.025.089-.065.087-.121-.01-.331-.011-.651-.019-.851-.004-.044-.056-.06-.102-.044-.132.036-.223.053-.311.075-.414.086-.699.086-.899-.061-.188-.14-.274-.355-.288-.755.014-.827 0-1.561 0-2.347a89.18 89.18 0 0 0 0-1.082c0-.049.035-.105.09-.105h.328m-73.743 0c.331 0 .697-.005 1.031-.005.053 0 .104-.028.108-.077 0-.216 0-.7-.004-.934 0-.057-.053-.083-.107-.083h-1.353c-.053 0-.086-.05-.086-.1v-1.592c0-.044-.042-.072-.089-.09h-1.02a.091.091 0 0 0-.09.09v1.593c0 .05-.04.099-.094.099h-1.2c-.056 0-.105.035-.105.091l-.003.914c0 .056.046.094.094.094.425 0 .895-.005 1.214-.005.06 0 .095.069.095.12 0 .39.004.892.002 1.234-.002.668-.01 1.408-.009 2.071.007.715.007 1.088.238 1.412.338.462.78.568 1.45.589.198.003.729-.03 1.044-.13.049-.025.093-.065.089-.121-.009-.331-.011-.651-.02-.851-.002-.044-.059-.06-.103-.044-.133.036-.223.053-.312.075-.41.086-.698.086-.896-.061-.19-.14-.278-.355-.285-.755.007-.827 0-1.561 0-2.347v-1.082c0-.049.03-.105.088-.105h.323m112.343 1.254c.22-.682.878-1.149 1.562-1.378a3.067 3.067 0 0 1 1.309-.053c.532.11 1.069.376 1.356.743.173.233.321.503.42.804.372 1.108-.18 2.303-.9 2.722a2.753 2.753 0 0 1-1.15.366c-.35.04-.715-.028-.965-.1-1.278-.34-2.148-1.512-1.632-3.104m2.71 4.206c.24-.033.448-.045.71-.111 1.177-.306 2.04-1.006 2.398-2.116.04-.175.095-.307.121-.526a3.466 3.466 0 0 0-.358-2.245c-.587-1.111-1.743-1.766-3.44-1.73a3.138 3.138 0 0 0-1.1.191c-.958.345-1.646.915-2.06 1.793-.154.333-.217.721-.258 1.088-.03.368-.011.793.079 1.142.352 1.365 1.086 2.023 2.428 2.386.392.11.873.152 1.48.128m-49.389-4.188a1.51 1.51 0 0 1 .478-.781c.307-.286.798-.445 1.309-.517.263-.02.507-.02.743-.013.054 0 .105-.04.105-.091v-.985c0-.05-.042-.084-.09-.084a4.273 4.273 0 0 0-.546.017 2.808 2.808 0 0 0-.862.191 4.014 4.014 0 0 0-1.07.668c-.03.025-.083.007-.083-.027.002-.203.002-.543.002-.696 0-.054-.047-.091-.098-.091h-.986c-.052 0-.096.037-.096.091-.004.43 0 .815 0 1.324-.004 1.04.01 4.272.016 4.9 0 .06.04.112.093.112.275.003.646-.008.968-.008.056 0 .093-.045.093-.106 0-.243.003-.438 0-.732.008-1.093-.065-2.763.024-3.172m56.831 0c.109-.405.295-.606.476-.781.308-.286.8-.445 1.31-.517.266-.02.509-.02.745-.013.051 0 .102-.04.102-.091.004-.276 0-.763 0-.985 0-.05-.04-.084-.086-.084a4.226 4.226 0 0 0-.545.017 2.793 2.793 0 0 0-.864.191 4.03 4.03 0 0 0-.738.411 4.097 4.097 0 0 0-.332.257c-.033.025-.082.007-.082-.027v-.696c0-.054-.05-.091-.098-.091h-.983c-.054 0-.098.037-.098.091-.005.43 0 .815 0 1.324a555.7 555.7 0 0 0 .016 4.9c.003.06.04.115.093.112.274.003.648-.008.968-.008.052 0 .094-.045.094-.106 0-.243.002-.438 0-.732.008-1.093-.066-2.763.022-3.172m-85.917-1.355c-.962-.416-2.176-.378-3.28-.447-1.035-.066-2.58.097-2.862-.869-.261-.895.894-1.37 1.513-1.525 1.035-.264 2.594-.22 3.488.244.295.15.564.33.81.518.162.159.232.22.333.353a.11.11 0 0 0 .114.03c.309-.13.858-.407 1.052-.504a.074.074 0 0 0 .036-.107c-.497-.907-2.166-1.604-3.4-1.805-.428-.072-.805-.081-1.245-.081-.287 0-.492.02-.768.047-.466.048-.906.134-1.296.295-.39.162-.782.356-1.09.588-.62.493-1.367 1.831-.718 2.833.174.273.42.516.685.696.701.452 1.86.554 2.825.604.377.012.755.029 1.13.04.285.02.57.036.855.058 1.004.08 1.91.446 2.1 1.454.092.491-.2.826-.39 1.074-.54.69-2.13 1.05-3.355.893-1.735-.23-2.494-.792-3.316-1.962a.095.095 0 0 0-.133-.027c-.31.141-.833.417-1.116.584-.035.028-.051.072-.031.112.133.28.35.477.532.693.722.848 1.744 1.32 2.919 1.651.566.165 1.607.165 2.258.123 2.106-.118 3.87-.852 4.024-2.916.04-.562-.13-1.11-.349-1.452-.333-.524-.734-.955-1.325-1.195m17.79-87.396c0 .016.015.025.03.022.568-.15 1.035-.244 1.25-.289 1.338-.259 2.976-.404 4.62-.404 1.003 0 1.976.058 2.887.152.18.014.882.111 1.05.141 1.088.167 2.396.568 2.9.747.51.181 1.438.59 1.57.65.39.177.773.36 1.12.573.484.263.915.528 1.24.753.015.01.006.035-.011.046l-1.52 1.023c-.012.01-.016.021-.008.037l.398.589c.013.01.024.01.039.003l5.477-3.681c.01-.019.014-.03.005-.04l-.395-.589c-.013-.01-.026-.014-.036-.01l-1.625 1.098c-.02.014-.052.017-.072 0-.707-.501-1.559-.992-2.58-1.498-.127-.07-.655-.277-.79-.333a29.323 29.323 0 0 0-3.545-1.154c-.154-.039-1.818-.438-2.781-.577a25.59 25.59 0 0 0-4.072-.283c-.878 0-1.785.03-2.895.148-.857.118-1.555.235-2.226.39-.02.004-.034.011-.034.034l.004 2.452m7.537 18.186a25.29 25.29 0 0 1-2.485-.12c-1.92-.193-3.558-.488-5.018-.915a18.506 18.506 0 0 0-.758-.244c-1.106-.4-2.11-.871-3.06-1.47-.13-.084-.636-.419-.762-.51-.64-.457-1.26-.971-1.88-1.549a.032.032 0 0 1 .008-.05l1.534-1.031a.034.034 0 0 0 .007-.04l-.398-.59c-.006-.009-.021-.012-.033-.004l-5.481 3.686c-.009.01-.011.027-.005.037l.4.589c.007.007.02.019.031.002l1.555-1.036c.021-.02.05-.02.07 0 .305.318.638.626 1.07 1.018a14.54 14.54 0 0 0 3.127 2.104c.13.07.633.31.764.373a22.7 22.7 0 0 0 3.043 1.083c.124.035.63.167.758.21.458.113.936.22 1.428.33 1.424.293 4.058.507 6.27.507.539 0 1.033-.012 1.479-.033 1.971-.105 3.689-.347 5.161-.713.018-.005.033-.014.024-.032l-1.191-2.165a.04.04 0 0 0-.034-.023c-1.827.42-3.92.586-5.624.586M99.544 12.956c.088.055.186.092.281.137.01.008.02-.006.02-.006-.005-1.743-.016-7.241-.016-8.39 0-.015-.016-.017-.027-.006-.065.037-.13.067-.2.101-1.28.743-2.32 2.074-2.655 3.407a3.76 3.76 0 0 0 .482 2.987c.422.662 1.193 1.315 2.115 1.77m23.6 10.315c.003.007.016.014.024.003 1.371-1.114 2.123-2.563 2.262-4.361.093-1.17-.249-2.4-.91-3.297-1.021-1.398-2.158-2.18-4.055-2.796-1.055-.348-2.235-.57-3.466-.721-.015 0-.026.005-.02.022.533.966 1.072 1.936 1.608 2.91a.08.08 0 0 0 .04.035c2.155.542 3.675 1.467 3.887 3.38.11.982-.24 1.776-.695 2.364-.007.017-.02.033-.01.055.443.8.89 1.6 1.334 2.406m-19.477 2.513c0-.019-.015-.024-.026-.024a26.118 26.118 0 0 1-2.99-1.029c-.015-.014-.02.004-.02.021-.001.455-.013 3.058-.003 3.937 0 .025-.025.045-.048.045h-1.694c-.017 0-.023.008-.023.022v.707c0 .013.006.025.023.025h6.607a.026.026 0 0 0 .025-.025v-.707c0-.014-.01-.022-.025-.022h-1.793c-.025 0-.048-.023-.048-.045.004-.51.012-2.674.015-2.905M120.59 3.882c.02.01.039 0 .054-.012a214.504 214.504 0 0 0 3.639-3.085.132.132 0 0 1 .076-.03h2.319c.013 0 .026 0 .026-.014V.028a.027.027 0 0 0-.026-.028h-8.507c-.013 0-.025.011-.025.028v.713c0 .015.012.015.025.015h1.297c.02 0 .03.015.02.035a97.013 97.013 0 0 1-2.287 1.917c-.009.008-.005.014.008.026a29.6 29.6 0 0 1 3.38 1.148m6.76 24.852c.028 0 .048.015.048.042v.665c0 .024-.02.047-.048.047h-8.46c-.026 0-.05-.023-.05-.047v-.665c0-.027.024-.042.05-.042h2.66c.012 0 .02-.014.014-.023l-1.639-2.991s-7.845-14.26-7.874-14.31c-.11-.168-.304-.387-.617-.387-.216 0-.391.116-.5.2-.057.048-.494.403-.673.538-.775.618-3.8 3.074-3.95 3.19-1.203.982-2.198 1.8-2.355 1.966-.225.23-.225.444-.225.597 0 0-.01.678-.018 1.085-.013.704-.028 1.495-.024 2.028v.874c0 .025-.027.047-.054.042a13.83 13.83 0 0 1-2.969-1.518c-.023-.017-.044-.042-.044-.066L100.587.777s-.008-.021-.023-.021h-1.656c-.023 0-.046-.015-.046-.045V.047c0-.027.023-.047.046-.047h6.561c.025 0 .048.02.048.047V.71c0 .03-.023.045-.048.045h-1.803c-.02 0-.026.015-.026.035 0 .65.023 11.014.026 11.084.013.812.572.817.931.58.122-.083 1.795-1.323 1.965-1.461a398.821 398.821 0 0 0 6.826-5.243c.026-.02.06-.02.093-.01 1.296.157 2.439.42 3.31.76 0 0 .266.11.423.169.027.01.04.042.021.057-.827.7-1.652 1.414-2.456 2.125a.543.543 0 0 0-.102.658l8.212 14.874c.793 1.447 1.59 2.884 2.377 4.316.008.014.019.034.037.034h2.046" fill="#231F20"/></g></svg>