<?xml version="1.0" standalone="no"?>
<!-- Generator: Adobe Fireworks 10, Export SVG Extension by Aaron Beall (http://fireworks.abeall.com) . Version: 0.6.1  -->
<!DOCTYPE svg PUBLIC "-//W3C//DTD SVG 1.1//EN" "http://www.w3.org/Graphics/SVG/1.1/DTD/svg11.dtd">
<svg id="Untitled-%u30DA%u30FC%u30B8%201" viewBox="0 0 71 47" style="background-color:#ffffff00" version="1.1"
	xmlns="http://www.w3.org/2000/svg" xmlns:xlink="http://www.w3.org/1999/xlink" xml:space="preserve"
	x="0px" y="0px" width="71px" height="47px"
>
	<defs>
		<clipPath id="mask1">
			<path d="M 0 0 L 71 0 L 71 47 L 0 47 L 0 0 Z" fill="none"/>
		</clipPath>
	</defs>
	<g id="%u30EC%u30A4%u30E4%u30FC_1_1">
			<path d="M 0 0 L 71 0 L 71 47 L 0 47 L 0 0 Z" fill="none"/>
		<g clip-path="url(#mask1)">
			<g>
				<path d="M 0 47 L 71 47 L 71 43.3853 L 0 43.3853 L 0 47 Z" fill="#ca001b"/>
				<path d="M 0 43.3853 L 71 43.3853 L 71 39.77 L 0 39.77 L 0 43.3853 Z" fill="#ffffff"/>
				<path d="M 0 39.77 L 71 39.77 L 71 36.1577 L 0 36.1577 L 0 39.77 Z" fill="#ca001b"/>
				<path d="M 0 36.1577 L 71 36.1577 L 71 32.5425 L 0 32.5425 L 0 36.1577 Z" fill="#ffffff"/>
				<path d="M 0 32.5425 L 71 32.5425 L 71 28.9248 L 0 28.9248 L 0 32.5425 Z" fill="#ca001b"/>
				<path d="M 0 28.9248 L 71 28.9248 L 71 25.3125 L 0 25.3125 L 0 28.9248 Z" fill="#ffffff"/>
				<path d="M 0 25.3125 L 71 25.3125 L 71 21.6929 L 0 21.6929 L 0 25.3125 Z" fill="#ca001b"/>
				<path d="M 0 21.6929 L 71 21.6929 L 71 18.0801 L 0 18.0801 L 0 21.6929 Z" fill="#ffffff"/>
				<path d="M 0 18.0801 L 71 18.0801 L 71 14.4653 L 0 14.4653 L 0 18.0801 Z" fill="#ca001b"/>
				<path d="M 0 14.4653 L 71 14.4653 L 71 10.8477 L 0 10.8477 L 0 14.4653 Z" fill="#ffffff"/>
				<path d="M 0 10.8477 L 71 10.8477 L 71 7.2324 L 0 7.2324 L 0 10.8477 Z" fill="#ca001b"/>
				<path d="M 0 7.2324 L 71 7.2324 L 71 3.6177 L 0 3.6177 L 0 7.2324 Z" fill="#ffffff"/>
				<path d="M 0 3.6177 L 71 3.6177 L 71 0 L 0 0 L 0 3.6177 Z" fill="#ca001b"/>
				<path d="M 0 25.3125 L 36.7974 25.3125 L 36.7974 0 L 0 0 L 0 25.3125 Z" fill="#29345f"/>
				<path d="M 3.3242 2.79 L 3.6387 3.749 L 4.6465 3.749 L 3.8306 4.3394 L 4.1406 5.2964 L 3.3242 4.7056 L 2.5088 5.2964 L 2.8276 4.3394 L 2.0117 3.749 L 3.0103 3.749 L 3.3242 2.79 Z" fill="#ffffff"/>
				<path d="M 3.3242 7.0171 L 3.6387 7.9712 L 4.6465 7.9712 L 3.8306 8.5596 L 4.1406 9.5205 L 3.3242 8.9277 L 2.5088 9.5205 L 2.8276 8.5596 L 2.0117 7.9712 L 3.0103 7.9712 L 3.3242 7.0171 Z" fill="#ffffff"/>
				<path d="M 3.3242 11.2417 L 3.6387 12.1958 L 4.6465 12.1958 L 3.8306 12.7866 L 4.1406 13.7451 L 3.3242 13.1523 L 2.5088 13.7451 L 2.8276 12.7866 L 2.0117 12.1958 L 3.0103 12.1958 L 3.3242 11.2417 Z" fill="#ffffff"/>
				<path d="M 3.3242 15.4634 L 3.6387 16.4224 L 4.6465 16.4224 L 3.8306 17.0132 L 4.1406 17.9673 L 3.3242 17.3789 L 2.5088 17.9673 L 2.8276 17.0132 L 2.0117 16.4224 L 3.0103 16.4224 L 3.3242 15.4634 Z" fill="#ffffff"/>
				<path d="M 3.3242 19.688 L 3.6387 20.6494 L 4.6465 20.6494 L 3.8306 21.2354 L 4.1406 22.1924 L 3.3242 21.6011 L 2.5088 22.1924 L 2.8276 21.2354 L 2.0117 20.6494 L 3.0103 20.6494 L 3.3242 19.688 Z" fill="#ffffff"/>
				<path d="M 6.269 5.0146 L 6.5693 5.9736 L 7.582 5.9736 L 6.771 6.5669 L 7.0752 7.521 L 6.269 6.9326 L 5.458 7.521 L 5.7627 6.5669 L 4.9512 5.9736 L 5.96 5.9736 L 6.269 5.0146 Z" fill="#ffffff"/>
				<path d="M 6.269 9.2417 L 6.5693 10.1958 L 7.582 10.1958 L 6.771 10.7891 L 7.0752 11.7432 L 6.269 11.1572 L 5.458 11.7432 L 5.7627 10.7891 L 4.9512 10.1958 L 5.96 10.1958 L 6.269 9.2417 Z" fill="#ffffff"/>
				<path d="M 6.269 13.4663 L 6.5693 14.4229 L 7.582 14.4229 L 6.771 15.0132 L 7.0752 15.9702 L 6.269 15.3794 L 5.458 15.9702 L 5.7627 15.0132 L 4.9512 14.4229 L 5.96 14.4229 L 6.269 13.4663 Z" fill="#ffffff"/>
				<path d="M 6.269 17.6929 L 6.5693 18.6475 L 7.582 18.6475 L 6.771 19.2383 L 7.0752 20.1924 L 6.269 19.5991 L 5.458 20.1924 L 5.7627 19.2383 L 4.9512 18.6475 L 5.96 18.6475 L 6.269 17.6929 Z" fill="#ffffff"/>
				<path d="M 9.2417 2.79 L 9.5557 3.749 L 10.564 3.749 L 9.748 4.3394 L 10.062 5.2964 L 9.2417 4.7056 L 8.4351 5.2964 L 8.7446 4.3394 L 7.9287 3.749 L 8.9321 3.749 L 9.2417 2.79 Z" fill="#ffffff"/>
				<path d="M 9.2417 7.0171 L 9.5557 7.9712 L 10.564 7.9712 L 9.748 8.5596 L 10.062 9.5205 L 9.2417 8.9277 L 8.4351 9.5205 L 8.7446 8.5596 L 7.9287 7.9712 L 8.9321 7.9712 L 9.2417 7.0171 Z" fill="#ffffff"/>
				<path d="M 9.2417 11.2417 L 9.5557 12.1958 L 10.564 12.1958 L 9.748 12.7866 L 10.062 13.7451 L 9.2417 13.1523 L 8.4351 13.7451 L 8.7446 12.7866 L 7.9287 12.1958 L 8.9321 12.1958 L 9.2417 11.2417 Z" fill="#ffffff"/>
				<path d="M 9.2417 15.4634 L 9.5557 16.4224 L 10.564 16.4224 L 9.748 17.0132 L 10.062 17.9673 L 9.2417 17.3789 L 8.4351 17.9673 L 8.7446 17.0132 L 7.9287 16.4224 L 8.9321 16.4224 L 9.2417 15.4634 Z" fill="#ffffff"/>
				<path d="M 9.2417 19.688 L 9.5557 20.6494 L 10.564 20.6494 L 9.748 21.2354 L 10.062 22.1924 L 9.2417 21.6011 L 8.4351 22.1924 L 8.7446 21.2354 L 7.9287 20.6494 L 8.9321 20.6494 L 9.2417 19.688 Z" fill="#ffffff"/>
				<path d="M 12.186 5.0146 L 12.4956 5.9736 L 13.5083 5.9736 L 12.688 6.5669 L 13.0024 7.521 L 12.186 6.9326 L 11.375 7.521 L 11.689 6.5669 L 10.8687 5.9736 L 11.8765 5.9736 L 12.186 5.0146 Z" fill="#ffffff"/>
				<path d="M 12.186 9.2417 L 12.4956 10.1958 L 13.5083 10.1958 L 12.688 10.7891 L 13.0024 11.7432 L 12.186 11.1572 L 11.375 11.7432 L 11.689 10.7891 L 10.8687 10.1958 L 11.8765 10.1958 L 12.186 9.2417 Z" fill="#ffffff"/>
				<path d="M 12.186 13.4663 L 12.4956 14.4229 L 13.5083 14.4229 L 12.688 15.0132 L 13.0024 15.9702 L 12.186 15.3794 L 11.375 15.9702 L 11.689 15.0132 L 10.8687 14.4229 L 11.8765 14.4229 L 12.186 13.4663 Z" fill="#ffffff"/>
				<path d="M 12.186 17.6929 L 12.4956 18.6475 L 13.5083 18.6475 L 12.688 19.2383 L 13.0024 20.1924 L 12.186 19.5991 L 11.375 20.1924 L 11.689 19.2383 L 10.8687 18.6475 L 11.8765 18.6475 L 12.186 17.6929 Z" fill="#ffffff"/>
				<path d="M 15.168 2.79 L 15.4824 3.749 L 16.481 3.749 L 15.665 4.3394 L 15.9888 5.2964 L 15.168 4.7056 L 14.3525 5.2964 L 14.6616 4.3394 L 13.8555 3.749 L 14.8589 3.749 L 15.168 2.79 Z" fill="#ffffff"/>
				<path d="M 15.168 7.0171 L 15.4824 7.9712 L 16.481 7.9712 L 15.665 8.5596 L 15.9888 9.5205 L 15.168 8.9277 L 14.3525 9.5205 L 14.6616 8.5596 L 13.8555 7.9712 L 14.8589 7.9712 L 15.168 7.0171 Z" fill="#ffffff"/>
				<path d="M 15.168 11.2417 L 15.4824 12.1958 L 16.481 12.1958 L 15.665 12.7866 L 15.9888 13.7451 L 15.168 13.1523 L 14.3525 13.7451 L 14.6616 12.7866 L 13.8555 12.1958 L 14.8589 12.1958 L 15.168 11.2417 Z" fill="#ffffff"/>
				<path d="M 15.168 15.4634 L 15.4824 16.4224 L 16.481 16.4224 L 15.665 17.0132 L 15.9888 17.9673 L 15.168 17.3789 L 14.3525 17.9673 L 14.6616 17.0132 L 13.8555 16.4224 L 14.8589 16.4224 L 15.168 15.4634 Z" fill="#ffffff"/>
				<path d="M 15.168 19.688 L 15.4824 20.6494 L 16.481 20.6494 L 15.665 21.2354 L 15.9888 22.1924 L 15.168 21.6011 L 14.3525 22.1924 L 14.6616 21.2354 L 13.8555 20.6494 L 14.8589 20.6494 L 15.168 19.688 Z" fill="#ffffff"/>
				<path d="M 18.1128 5.0146 L 18.4224 5.9736 L 19.4253 5.9736 L 18.6143 6.5669 L 18.9194 7.521 L 18.1128 6.9326 L 17.3018 7.521 L 17.6064 6.5669 L 16.7954 5.9736 L 17.7988 5.9736 L 18.1128 5.0146 Z" fill="#ffffff"/>
				<path d="M 18.1128 9.2417 L 18.4224 10.1958 L 19.4253 10.1958 L 18.6143 10.7891 L 18.9194 11.7432 L 18.1128 11.1572 L 17.3018 11.7432 L 17.6064 10.7891 L 16.7954 10.1958 L 17.7988 10.1958 L 18.1128 9.2417 Z" fill="#ffffff"/>
				<path d="M 18.1128 13.4663 L 18.4224 14.4229 L 19.4253 14.4229 L 18.6143 15.0132 L 18.9194 15.9702 L 18.1128 15.3794 L 17.3018 15.9702 L 17.6064 15.0132 L 16.7954 14.4229 L 17.7988 14.4229 L 18.1128 13.4663 Z" fill="#ffffff"/>
				<path d="M 18.1128 17.6929 L 18.4224 18.6475 L 19.4253 18.6475 L 18.6143 19.2383 L 18.9194 20.1924 L 18.1128 19.5991 L 17.3018 20.1924 L 17.6064 19.2383 L 16.7954 18.6475 L 17.7988 18.6475 L 18.1128 17.6929 Z" fill="#ffffff"/>
				<path d="M 21.0854 2.79 L 21.3994 3.749 L 22.4033 3.749 L 21.5918 4.3394 L 21.9058 5.2964 L 21.0854 4.7056 L 20.2788 5.2964 L 20.584 4.3394 L 19.7725 3.749 L 20.7759 3.749 L 21.0854 2.79 Z" fill="#ffffff"/>
				<path d="M 21.0854 7.0171 L 21.3994 7.9712 L 22.4033 7.9712 L 21.5918 8.5596 L 21.9058 9.5205 L 21.0854 8.9277 L 20.2788 9.5205 L 20.584 8.5596 L 19.7725 7.9712 L 20.7759 7.9712 L 21.0854 7.0171 Z" fill="#ffffff"/>
				<path d="M 21.0854 11.2417 L 21.3994 12.1958 L 22.4033 12.1958 L 21.5918 12.7866 L 21.9058 13.7451 L 21.0854 13.1523 L 20.2788 13.7451 L 20.584 12.7866 L 19.7725 12.1958 L 20.7759 12.1958 L 21.0854 11.2417 Z" fill="#ffffff"/>
				<path d="M 21.0854 15.4634 L 21.3994 16.4224 L 22.4033 16.4224 L 21.5918 17.0132 L 21.9058 17.9673 L 21.0854 17.3789 L 20.2788 17.9673 L 20.584 17.0132 L 19.7725 16.4224 L 20.7759 16.4224 L 21.0854 15.4634 Z" fill="#ffffff"/>
				<path d="M 21.0854 19.688 L 21.3994 20.6494 L 22.4033 20.6494 L 21.5918 21.2354 L 21.9058 22.1924 L 21.0854 21.6011 L 20.2788 22.1924 L 20.584 21.2354 L 19.7725 20.6494 L 20.7759 20.6494 L 21.0854 19.688 Z" fill="#ffffff"/>
				<path d="M 24.0303 5.0146 L 24.3394 5.9736 L 25.3521 5.9736 L 24.5361 6.5669 L 24.8462 7.521 L 24.0303 6.9326 L 23.2188 7.521 L 23.5327 6.5669 L 22.7168 5.9736 L 23.7251 5.9736 L 24.0303 5.0146 Z" fill="#ffffff"/>
				<path d="M 24.0303 9.2417 L 24.3394 10.1958 L 25.3521 10.1958 L 24.5361 10.7891 L 24.8462 11.7432 L 24.0303 11.1572 L 23.2188 11.7432 L 23.5327 10.7891 L 22.7168 10.1958 L 23.7251 10.1958 L 24.0303 9.2417 Z" fill="#ffffff"/>
				<path d="M 24.0303 13.4663 L 24.3394 14.4229 L 25.3521 14.4229 L 24.5361 15.0132 L 24.8462 15.9702 L 24.0303 15.3794 L 23.2188 15.9702 L 23.5327 15.0132 L 22.7168 14.4229 L 23.7251 14.4229 L 24.0303 13.4663 Z" fill="#ffffff"/>
				<path d="M 24.0303 17.6929 L 24.3394 18.6475 L 25.3521 18.6475 L 24.5361 19.2383 L 24.8462 20.1924 L 24.0303 19.5991 L 23.2188 20.1924 L 23.5327 19.2383 L 22.7168 18.6475 L 23.7251 18.6475 L 24.0303 17.6929 Z" fill="#ffffff"/>
				<path d="M 27.0122 2.79 L 27.3262 3.749 L 28.3296 3.749 L 27.5181 4.3394 L 27.8232 5.2964 L 27.0122 4.7056 L 26.2056 5.2964 L 26.5103 4.3394 L 25.6992 3.749 L 26.7026 3.749 L 27.0122 2.79 Z" fill="#ffffff"/>
				<path d="M 27.0122 7.0171 L 27.3262 7.9712 L 28.3296 7.9712 L 27.5181 8.5596 L 27.8232 9.5205 L 27.0122 8.9277 L 26.2056 9.5205 L 26.5103 8.5596 L 25.6992 7.9712 L 26.7026 7.9712 L 27.0122 7.0171 Z" fill="#ffffff"/>
				<path d="M 27.0122 11.2417 L 27.3262 12.1958 L 28.3296 12.1958 L 27.5181 12.7866 L 27.8232 13.7451 L 27.0122 13.1523 L 26.2056 13.7451 L 26.5103 12.7866 L 25.6992 12.1958 L 26.7026 12.1958 L 27.0122 11.2417 Z" fill="#ffffff"/>
				<path d="M 27.0122 15.4634 L 27.3262 16.4224 L 28.3296 16.4224 L 27.5181 17.0132 L 27.8232 17.9673 L 27.0122 17.3789 L 26.2056 17.9673 L 26.5103 17.0132 L 25.6992 16.4224 L 26.7026 16.4224 L 27.0122 15.4634 Z" fill="#ffffff"/>
				<path d="M 27.0122 19.688 L 27.3262 20.6494 L 28.3296 20.6494 L 27.5181 21.2354 L 27.8232 22.1924 L 27.0122 21.6011 L 26.2056 22.1924 L 26.5103 21.2354 L 25.6992 20.6494 L 26.7026 20.6494 L 27.0122 19.688 Z" fill="#ffffff"/>
				<path d="M 29.9565 5.0146 L 30.2612 5.9736 L 31.269 5.9736 L 30.4629 6.5669 L 30.7632 7.521 L 29.9565 6.9326 L 29.1362 7.521 L 29.4502 6.5669 L 28.6436 5.9736 L 29.6421 5.9736 L 29.9565 5.0146 Z" fill="#ffffff"/>
				<path d="M 29.9565 9.2417 L 30.2612 10.1958 L 31.269 10.1958 L 30.4629 10.7891 L 30.7632 11.7432 L 29.9565 11.1572 L 29.1362 11.7432 L 29.4502 10.7891 L 28.6436 10.1958 L 29.6421 10.1958 L 29.9565 9.2417 Z" fill="#ffffff"/>
				<path d="M 29.9565 13.4663 L 30.2612 14.4229 L 31.269 14.4229 L 30.4629 15.0132 L 30.7632 15.9702 L 29.9565 15.3794 L 29.1362 15.9702 L 29.4502 15.0132 L 28.6436 14.4229 L 29.6421 14.4229 L 29.9565 13.4663 Z" fill="#ffffff"/>
				<path d="M 29.9565 17.6929 L 30.2612 18.6475 L 31.269 18.6475 L 30.4629 19.2383 L 30.7632 20.1924 L 29.9565 19.5991 L 29.1362 20.1924 L 29.4502 19.2383 L 28.6436 18.6475 L 29.6421 18.6475 L 29.9565 17.6929 Z" fill="#ffffff"/>
				<path d="M 32.9292 2.79 L 33.248 3.749 L 34.2471 3.749 L 33.4355 4.3394 L 33.7495 5.2964 L 32.9292 4.7056 L 32.1226 5.2964 L 32.4277 4.3394 L 31.6167 3.749 L 32.6196 3.749 L 32.9292 2.79 Z" fill="#ffffff"/>
				<path d="M 32.9292 7.0171 L 33.248 7.9712 L 34.2471 7.9712 L 33.4355 8.5596 L 33.7495 9.5205 L 32.9292 8.9277 L 32.1226 9.5205 L 32.4277 8.5596 L 31.6167 7.9712 L 32.6196 7.9712 L 32.9292 7.0171 Z" fill="#ffffff"/>
				<path d="M 32.9292 11.2417 L 33.248 12.1958 L 34.2471 12.1958 L 33.4355 12.7866 L 33.7495 13.7451 L 32.9292 13.1523 L 32.1226 13.7451 L 32.4277 12.7866 L 31.6167 12.1958 L 32.6196 12.1958 L 32.9292 11.2417 Z" fill="#ffffff"/>
				<path d="M 32.9292 15.4634 L 33.248 16.4224 L 34.2471 16.4224 L 33.4355 17.0132 L 33.7495 17.9673 L 32.9292 17.3789 L 32.1226 17.9673 L 32.4277 17.0132 L 31.6167 16.4224 L 32.6196 16.4224 L 32.9292 15.4634 Z" fill="#ffffff"/>
				<path d="M 32.9292 19.688 L 33.248 20.6494 L 34.2471 20.6494 L 33.4355 21.2354 L 33.7495 22.1924 L 32.9292 21.6011 L 32.1226 22.1924 L 32.4277 21.2354 L 31.6167 20.6494 L 32.6196 20.6494 L 32.9292 19.688 Z" fill="#ffffff"/>
			</g>
		</g>
	</g>
</svg>